{"title":"4Got10.2015.720p.BRRip.XviD.AC3-RARBG","uid":12526136,"size":2753478761,"categoryP":"video","categoryS":"movies","magnet":"?xt=urn:btih:ae572dfdbfd324f332777a71943adf6bfe45156e&amp;dn=4Got10.2015.720p.BRRip.XviD.AC3-RARBG&amp;tr=udp%3A%2F%2Ftracker.leechers-paradise.org%3A6969&amp;tr=udp%3A%2F%2Fzer0day.ch%3A1337&amp;tr=udp%3A%2F%2Fopen.demonii.com%3A1337&amp;tr=udp%3A%2F%2Ftracker.coppersurfer.tk%3A6969&amp;tr=udp%3A%2F%2Fexodus.desync.com%3A6969","seeders":0,"leechers":1,"uploader":null,"files":6,"time":1444057773,"description":"Video\r\nID                                       : 0\r\nFormat                                   : MPEG-4 Visual\r\nFormat profile                           :   \r\nFormat settings, BVOP                    : No\r\nFormat settings, QPel                    : No\r\nFormat settings, GMC                     : No warppoints\r\nFormat settings, Matrix                  : Default (H.263)\r\nCodec ID                                 : XVID\r\nCodec ID/Hint                            : XviD\r\nDuration                                 : 1h 24mn\r\nBit rate                                 : 3 702 Kbps\r\nWidth                                    : 1 280 pixels\r\nHeight                                   : 544 pixels\r\nDisplay aspect ratio                     : 2.35:1\r\nFrame rate                               : 23.976 fps\r\nColor space                              : YUV\r\nChroma subsampling                       : 4:2:0\r\nBit depth                                : 8 bits\r\nScan type                                : Progressive\r\nCompression mode                         : Lossy\r\nBits/(Pixel*Frame)                       : 0.222\r\nStream size                              : 2.18 GiB (85%)\r\nWriting library                          : Lavc56.60.100\r\n\r\nAudio\r\nID                                       : 1\r\nFormat                                   : AC-3\r\nFormat/Info                              : Audio Coding 3\r\nMode extension                           : CM (complete main)\r\nFormat settings, Endianness              : Big\r\nCodec ID                                 : 2000\r\nDuration                                 : 1h 24mn\r\nBit rate mode                            : Constant\r\nBit rate                                 : 640 Kbps\r\nChannel(s)                               : 6 channels\r\nChannel positions                        : Front: L C R, Side: L R, LFE\r\nSampling rate                            : 48.0 KHz\r\nCompression mode                         : Lossy\r\nStream size                              : 385 MiB (15%)\r\nAlignment                                : Aligned on interleaves\r\nInterleave, duration                     : 42 ms (1.00 video frame)\r\nInterleave, preload duration             : 512 ms","torrent":{"xt":"urn:btih:ae572dfdbfd324f332777a71943adf6bfe45156e","amp;dn":"4Got10.2015.720p.BRRip.XviD.AC3-RARBG","amp;tr":["udp%3A%2F%2Ftracker.leechers-paradise.org%3A6969","udp%3A%2F%2Fzer0day.ch%3A1337","udp%3A%2F%2Fopen.demonii.com%3A1337","udp%3A%2F%2Ftracker.coppersurfer.tk%3A6969","udp%3A%2F%2Fexodus.desync.com%3A6969"],"infoHash":"ae572dfdbfd324f332777a71943adf6bfe45156e","infoHashBuffer":{"type":"Buffer","data":[174,87,45,253,191,211,36,243,50,119,122,113,148,58,223,107,254,69,21,110]},"announce":[],"urlList":[]}}